<?xml version="1.0" standalone="no"?>
 <!DOCTYPE svg PUBLIC "-//W3C//DTD SVG 1.1//EN" 
 "http://www.w3.org/Graphics/SVG/1.1/DTD/svg11.dtd"> 
<svg
  xmlns:svg="http://www.w3.org/2000/svg"
  xmlns="http://www.w3.org/2000/svg"
  xmlns:xlink="http://www.w3.org/1999/xlink"
  version="1.1"
  width="297.0022mm" height="210.0072mm" viewBox="0.0000 0.0000 297.0022 210.0072">
<title>SVG Image created as biron-B_Silkscreen.svg date 2023/03/25 16:43:04 </title>
  <desc>Image generated by PCBNEW </desc>
<g style="fill:#000000; fill-opacity:1.0000;stroke:#000000; stroke-opacity:1.0000;
stroke-linecap:round; stroke-linejoin:round;"
 transform="translate(0 0) scale(1 1)">
</g>
<g style="fill:#000000; fill-opacity:0.0; 
stroke:#000000; stroke-width:0.0000; stroke-opacity:1; 
stroke-linecap:round; stroke-linejoin:round;">
</g>
<g style="fill:#E8B2A7; fill-opacity:0.0; 
stroke:#E8B2A7; stroke-width:0.0000; stroke-opacity:1; 
stroke-linecap:round; stroke-linejoin:round;">
</g>
<g style="fill:#E8B2A7; fill-opacity:0.0; 
stroke:#E8B2A7; stroke-width:0.1500; stroke-opacity:1; 
stroke-linecap:round; stroke-linejoin:round;">
<text x="80.0100" y="66.0400"
transform="scale(-1 1) translate(-160.020000 0)"
textLength="11.7286" font-size="1.3333" lengthAdjust="spacingAndGlyphs"
text-anchor="start" opacity="0">Feedback track</text>
<g class="stroked-text"><desc>Feedback track</desc>
<path d="M79.3790 65.3938
L79.7124 65.3938
" />
<path d="M79.7779 65.9176
L79.6529 64.9176
" />
<path d="M79.6529 64.9176
L79.1767 64.9176
" />
<path d="M78.5398 65.8700
L78.6410 65.9176
" />
<path d="M78.6410 65.9176
L78.8314 65.9176
" />
<path d="M78.8314 65.9176
L78.9207 65.8700
" />
<path d="M78.9207 65.8700
L78.9564 65.7748
" />
<path d="M78.9564 65.7748
L78.9088 65.3938
" />
<path d="M78.9088 65.3938
L78.8493 65.2986
" />
<path d="M78.8493 65.2986
L78.7481 65.2510
" />
<path d="M78.7481 65.2510
L78.5576 65.2510
" />
<path d="M78.5576 65.2510
L78.4683 65.2986
" />
<path d="M78.4683 65.2986
L78.4326 65.3938
" />
<path d="M78.4326 65.3938
L78.4445 65.4890
" />
<path d="M78.4445 65.4890
L78.9326 65.5843
" />
<path d="M77.6886 65.8700
L77.7898 65.9176
" />
<path d="M77.7898 65.9176
L77.9802 65.9176
" />
<path d="M77.9802 65.9176
L78.0695 65.8700
" />
<path d="M78.0695 65.8700
L78.1052 65.7748
" />
<path d="M78.1052 65.7748
L78.0576 65.3938
" />
<path d="M78.0576 65.3938
L77.9981 65.2986
" />
<path d="M77.9981 65.2986
L77.8969 65.2510
" />
<path d="M77.8969 65.2510
L77.7064 65.2510
" />
<path d="M77.7064 65.2510
L77.6171 65.2986
" />
<path d="M77.6171 65.2986
L77.5814 65.3938
" />
<path d="M77.5814 65.3938
L77.5933 65.4890
" />
<path d="M77.5933 65.4890
L78.0814 65.5843
" />
<path d="M76.7957 65.9176
L76.6707 64.9176
" />
<path d="M76.7898 65.8700
L76.8910 65.9176
" />
<path d="M76.8910 65.9176
L77.0814 65.9176
" />
<path d="M77.0814 65.9176
L77.1707 65.8700
" />
<path d="M77.1707 65.8700
L77.2124 65.8224
" />
<path d="M77.2124 65.8224
L77.2481 65.7271
" />
<path d="M77.2481 65.7271
L77.2124 65.4414
" />
<path d="M77.2124 65.4414
L77.1529 65.3462
" />
<path d="M77.1529 65.3462
L77.0993 65.2986
" />
<path d="M77.0993 65.2986
L76.9981 65.2510
" />
<path d="M76.9981 65.2510
L76.8076 65.2510
" />
<path d="M76.8076 65.2510
L76.7183 65.2986
" />
<path d="M76.3255 65.9176
L76.2005 64.9176
" />
<path d="M76.2481 65.2986
L76.1469 65.2510
" />
<path d="M76.1469 65.2510
L75.9564 65.2510
" />
<path d="M75.9564 65.2510
L75.8671 65.2986
" />
<path d="M75.8671 65.2986
L75.8255 65.3462
" />
<path d="M75.8255 65.3462
L75.7898 65.4414
" />
<path d="M75.7898 65.4414
L75.8255 65.7271
" />
<path d="M75.8255 65.7271
L75.8850 65.8224
" />
<path d="M75.8850 65.8224
L75.9386 65.8700
" />
<path d="M75.9386 65.8700
L76.0398 65.9176
" />
<path d="M76.0398 65.9176
L76.2302 65.9176
" />
<path d="M76.2302 65.9176
L76.3195 65.8700
" />
<path d="M74.9981 65.9176
L74.9326 65.3938
" />
<path d="M74.9326 65.3938
L74.9683 65.2986
" />
<path d="M74.9683 65.2986
L75.0576 65.2510
" />
<path d="M75.0576 65.2510
L75.2481 65.2510
" />
<path d="M75.2481 65.2510
L75.3493 65.2986
" />
<path d="M74.9921 65.8700
L75.0933 65.9176
" />
<path d="M75.0933 65.9176
L75.3314 65.9176
" />
<path d="M75.3314 65.9176
L75.4207 65.8700
" />
<path d="M75.4207 65.8700
L75.4564 65.7748
" />
<path d="M75.4564 65.7748
L75.4445 65.6795
" />
<path d="M75.4445 65.6795
L75.3850 65.5843
" />
<path d="M75.3850 65.5843
L75.2838 65.5367
" />
<path d="M75.2838 65.5367
L75.0457 65.5367
" />
<path d="M75.0457 65.5367
L74.9445 65.4890
" />
<path d="M74.0933 65.8700
L74.1945 65.9176
" />
<path d="M74.1945 65.9176
L74.3850 65.9176
" />
<path d="M74.3850 65.9176
L74.4743 65.8700
" />
<path d="M74.4743 65.8700
L74.5160 65.8224
" />
<path d="M74.5160 65.8224
L74.5517 65.7271
" />
<path d="M74.5517 65.7271
L74.5160 65.4414
" />
<path d="M74.5160 65.4414
L74.4564 65.3462
" />
<path d="M74.4564 65.3462
L74.4029 65.2986
" />
<path d="M74.4029 65.2986
L74.3017 65.2510
" />
<path d="M74.3017 65.2510
L74.1112 65.2510
" />
<path d="M74.1112 65.2510
L74.0219 65.2986
" />
<path d="M73.6767 65.9176
L73.5517 64.9176
" />
<path d="M73.5338 65.5367
L73.2957 65.9176
" />
<path d="M73.2124 65.2510
L73.6410 65.6319
" />
<path d="M72.1707 65.2510
L71.7898 65.2510
" />
<path d="M71.9862 64.9176
L72.0933 65.7748
" />
<path d="M72.0933 65.7748
L72.0576 65.8700
" />
<path d="M72.0576 65.8700
L71.9683 65.9176
" />
<path d="M71.9683 65.9176
L71.8731 65.9176
" />
<path d="M71.5457 65.9176
L71.4624 65.2510
" />
<path d="M71.4862 65.4414
L71.4267 65.3462
" />
<path d="M71.4267 65.3462
L71.3731 65.2986
" />
<path d="M71.3731 65.2986
L71.2719 65.2510
" />
<path d="M71.2719 65.2510
L71.1767 65.2510
" />
<path d="M70.5040 65.9176
L70.4386 65.3938
" />
<path d="M70.4386 65.3938
L70.4743 65.2986
" />
<path d="M70.4743 65.2986
L70.5636 65.2510
" />
<path d="M70.5636 65.2510
L70.7540 65.2510
" />
<path d="M70.7540 65.2510
L70.8552 65.2986
" />
<path d="M70.4981 65.8700
L70.5993 65.9176
" />
<path d="M70.5993 65.9176
L70.8374 65.9176
" />
<path d="M70.8374 65.9176
L70.9267 65.8700
" />
<path d="M70.9267 65.8700
L70.9624 65.7748
" />
<path d="M70.9624 65.7748
L70.9505 65.6795
" />
<path d="M70.9505 65.6795
L70.8910 65.5843
" />
<path d="M70.8910 65.5843
L70.7898 65.5367
" />
<path d="M70.7898 65.5367
L70.5517 65.5367
" />
<path d="M70.5517 65.5367
L70.4505 65.4890
" />
<path d="M69.5993 65.8700
L69.7005 65.9176
" />
<path d="M69.7005 65.9176
L69.8910 65.9176
" />
<path d="M69.8910 65.9176
L69.9802 65.8700
" />
<path d="M69.9802 65.8700
L70.0219 65.8224
" />
<path d="M70.0219 65.8224
L70.0576 65.7271
" />
<path d="M70.0576 65.7271
L70.0219 65.4414
" />
<path d="M70.0219 65.4414
L69.9624 65.3462
" />
<path d="M69.9624 65.3462
L69.9088 65.2986
" />
<path d="M69.9088 65.2986
L69.8076 65.2510
" />
<path d="M69.8076 65.2510
L69.6171 65.2510
" />
<path d="M69.6171 65.2510
L69.5279 65.2986
" />
<path d="M69.1826 65.9176
L69.0576 64.9176
" />
<path d="M69.0398 65.5367
L68.8017 65.9176
" />
<path d="M68.7183 65.2510
L69.1469 65.6319
" />
</g><g >
</g>
<g >
</g>
<g >
</g>
<g >
</g>
<g >
</g>
<g >
</g>
<g >
</g>
<g >
</g>
<g >
</g>
<g >
</g>
<g >
</g>
<g >
</g>
<g >
</g>
<g >
</g>
<g >
</g>
<g >
</g>
<g >
</g>
<g >
</g>
<g >
</g>
<g >
</g>
<g >
</g>
<g >
</g>
<g >
</g>
<g >
</g>
<g >
</g>
<g >
</g>
<g >
</g>
<g >
</g>
<g >
</g>
<g >
</g>
<g >
</g>
<g >
</g>
<g >
</g>
<g >
</g>
<g >
</g>
<g >
</g>
<g >
</g>
<g >
</g>
<g >
</g>
<g >
</g>
<g >
</g>
<g >
</g>
<g >
</g>
<g >
</g>
<g >
</g>
<g >
</g>
<g >
</g>
<g >
</g>
<g >
</g>
<g >
</g>
<g >
</g>
<g >
</g>
<g >
</g>
<g >
</g>
<g >
</g>
<g >
</g>
<g >
</g>
<g >
</g>
<g >
</g>
<g >
</g>
<g >
</g>
<g >
</g>
<g >
</g>
<g >
</g>
<g >
</g>
<g >
</g>
<g >
</g>
<g >
</g>
<g >
</g>
<g >
</g>
<g >
</g>
<g >
</g>
<g >
</g>
<g >
</g>
<g >
</g>
<g >
</g>
<g >
</g>
<g >
</g>
<g >
</g>
<g >
</g>
<g >
</g>
<g >
</g>
<g >
</g>
<g >
</g>
<g >
</g>
<g >
</g>
<g >
</g>
<g >
</g>
<g >
</g>
<g >
</g>
<g >
</g>
<g >
</g>
<g >
</g>
<g >
</g>
<g >
</g>
<g >
</g>
<g >
</g>
<g >
</g>
<g >
</g>
<g >
</g>
<g >
</g>
<g >
</g>
<g >
</g>
<g >
</g>
<g >
</g>
<g >
</g>
<g >
</g>
<g >
</g>
<g >
</g>
<g >
</g>
<g >
</g>
<g >
</g>
<g >
</g>
<g >
</g>
<g >
</g>
<g >
</g>
<g >
</g>
<g >
</g>
<g >
</g>
<g >
</g>
<g >
</g>
<g >
</g>
<g >
</g>
<g >
</g>
<g >
</g>
<g >
</g>
<g >
</g>
<g >
</g>
<g >
</g>
<g >
</g>
<g >
</g>
<g >
</g>
<g >
</g>
<g >
</g>
<g >
</g>
<g >
</g>
<g >
</g>
<g >
</g>
<g >
</g>
<g >
</g>
<g >
</g>
<g >
</g>
<g >
</g>
<g >
</g>
</g> 
</svg>
